# xmcd
#
# Track frame offsets:
#	150
#	17137
#	34985
#	52202
#	71955
#	90712
#	107272
#	130145
#	150547
#	168117
#	192640
#	221332
#	236560
#	263697
#	280267
#
# Disc length: 4077 seconds
#
# Revision: 0
# Processed by: cddbd v1.4PL0 Copyright (c) Steve Scherf et al.
# Submitted via: audiograbber 1.81.01
#
DISCID=d40feb0f
DTITLE=Paul Rodgers company - Live In Hollywood 1994
DYEAR=1994
DGENRE=Blues
TTITLE0=Can´t Get Enough
TTITLE1=Luisiana Blues
TTITLE2=Purple Haze
TTITLE3=Muddy Water Blues
TTITLE4=Wishing Well
TTITLE5=Fire And Water
TTITLE6=Mr. Big
TTITLE7=Shooting Star
TTITLE8=Fire
TTITLE9=Little Wing
TTITLE10=Stone Free/IFeel Free
TTITLE11=Foxy Lady
TTITLE12=Bad Company
TTITLE13=The Hunter
TTITLE14=All Right Now
EXTD=
EXTT0=
EXTT1=
EXTT2=
EXTT3=
EXTT4=
EXTT5=
EXTT6=
EXTT7=
EXTT8=
EXTT9=
EXTT10=
EXTT11=
EXTT12=
EXTT13=
EXTT14=
PLAYORDER=
